<svg width="12" height="12" viewBox="0 0 12 12" fill="none" xmlns="http://www.w3.org/2000/svg">
<g clip-path="url(#clip0_277_438)">
<path d="M10.1426 1.5L11.3965 5.25H12V6H11.8711C11.793 6.22266 11.6836 6.42578 11.543 6.60938C11.4023 6.79297 11.2383 6.95117 11.0508 7.08398C10.8633 7.2168 10.6602 7.31836 10.4414 7.38867C10.2227 7.45898 9.99219 7.49609 9.75 7.5C9.51172 7.5 9.2832 7.46484 9.06445 7.39453C8.8457 7.32422 8.64258 7.22266 8.45508 7.08984C8.26758 6.95703 8.10352 6.79883 7.96289 6.61523C7.82227 6.43164 7.71094 6.22656 7.62891 6H7.5V5.25H8.10352L9.35742 1.5H6.75V9.76172C7.40234 9.80469 8.01953 9.95117 8.60156 10.2012C9.18359 10.4512 9.7168 10.8008 10.2012 11.25H11.25V12H1.5V11.25H2.54883C3.0293 10.8047 3.56055 10.457 4.14258 10.207C4.72461 9.95703 5.34375 9.80859 6 9.76172V1.5H3.39258L4.64648 5.25H5.25V6H5.12109C5.04297 6.22266 4.93359 6.42578 4.79297 6.60938C4.65234 6.79297 4.48828 6.95117 4.30078 7.08398C4.11328 7.2168 3.91016 7.31836 3.69141 7.38867C3.47266 7.45898 3.24219 7.49609 3 7.5C2.76172 7.5 2.5332 7.46484 2.31445 7.39453C2.0957 7.32422 1.89258 7.22266 1.70508 7.08984C1.51758 6.95703 1.35352 6.79883 1.21289 6.61523C1.07227 6.43164 0.960938 6.22656 0.878906 6H0.75V5.25H1.35352L2.60742 1.5H0.75V0.75H6V0H6.75V0.75H12V1.5H10.1426ZM3 2.68359L2.14453 5.25H3.85547L3 2.68359ZM3 6.75C3.26953 6.75 3.51953 6.68359 3.75 6.55078C3.98047 6.41797 4.16406 6.23438 4.30078 6H1.69922C1.83594 6.23438 2.01953 6.41797 2.25 6.55078C2.48047 6.68359 2.73047 6.75 3 6.75ZM8.97656 11.25C8.58594 11.0039 8.16992 10.8184 7.72852 10.6934C7.28711 10.5684 6.83594 10.5039 6.375 10.5C5.91406 10.5 5.46289 10.5625 5.02148 10.6875C4.58008 10.8125 4.16406 11 3.77344 11.25H8.97656ZM9.75 2.68359L8.89453 5.25H10.6055L9.75 2.68359ZM9.75 6.75C10.0195 6.75 10.2695 6.68359 10.5 6.55078C10.7305 6.41797 10.9141 6.23438 11.0508 6H8.44922C8.58594 6.23438 8.76953 6.41797 9 6.55078C9.23047 6.68359 9.48047 6.75 9.75 6.75Z" fill="#494949"/>
</g>
<defs>
<clipPath id="clip0_277_438">
<rect width="12" height="12" fill="white"/>
</clipPath>
</defs>
</svg>
