<svg width="32" height="32" viewBox="0 0 32 32" fill="none" xmlns="http://www.w3.org/2000/svg">
<g clip-path="url(#clip0_2001_426)">
<path d="M11.1428 1.05225C7.94555 2.16142 5.18821 4.26667 3.27583 7.05876C1.36344 9.85085 0.396826 13.1826 0.517953 16.5647C0.639081 19.9467 1.84157 23.2008 3.94879 25.8489C6.05601 28.4971 8.95689 30.3997 12.2253 31.2773C14.8752 31.961 17.6514 31.991 20.3153 31.3648C22.7286 30.8227 24.9598 29.6632 26.7903 27.9998C28.6955 26.2156 30.0784 23.9459 30.7903 21.4348C31.5641 18.7039 31.7018 15.8321 31.1928 13.0398H16.3128V19.2123H24.9303C24.7581 20.1967 24.389 21.1363 23.8452 21.9748C23.3014 22.8133 22.594 23.5335 21.7653 24.0923C20.7131 24.7883 19.5268 25.2567 18.2828 25.4673C17.0352 25.6992 15.7555 25.6992 14.5078 25.4673C13.2433 25.2058 12.0471 24.6839 10.9953 23.9348C9.30572 22.7387 8.03704 21.0396 7.37035 19.0798C6.69238 17.0832 6.69238 14.9188 7.37035 12.9223C7.84491 11.5228 8.62943 10.2486 9.66535 9.19475C10.8508 7.96662 12.3517 7.08874 14.0032 6.65744C15.6548 6.22614 17.3932 6.25808 19.0278 6.74975C20.3048 7.14173 21.4725 7.82659 22.4378 8.74975C23.4095 7.78308 24.3795 6.81392 25.3478 5.84225C25.8478 5.31975 26.3928 4.82225 26.8853 4.28725C25.4118 2.91594 23.6821 1.84889 21.7953 1.14725C18.3596 -0.100274 14.6003 -0.1338 11.1428 1.05225Z" fill="white"/>
<path d="M11.143 1.05249C14.6002 -0.134368 18.3595 -0.101725 21.7955 1.14499C23.6826 1.8514 25.4115 2.92358 26.883 4.29999C26.383 4.83499 25.8555 5.33499 25.3455 5.85499C24.3755 6.82332 23.4064 7.78832 22.438 8.74999C21.4727 7.82683 20.305 7.14197 19.028 6.74999C17.394 6.25659 15.6556 6.22281 14.0036 6.65235C12.3516 7.08188 10.8498 7.95814 9.66305 9.18499C8.62713 10.2388 7.84261 11.513 7.36805 12.9125L2.18555 8.89999C4.04057 5.22139 7.25242 2.40755 11.143 1.05249Z" fill="#E33629"/>
<path d="M0.811946 12.8754C1.0905 11.4949 1.55296 10.158 2.18695 8.90039L7.36945 12.9229C6.69148 14.9194 6.69148 17.0839 7.36945 19.0804C5.64278 20.4137 3.91528 21.7537 2.18695 23.1004C0.599823 19.9412 0.115778 16.3416 0.811946 12.8754Z" fill="#F8BD00"/>
<path d="M16.3136 13.0371H31.1936C31.7026 15.8294 31.5649 18.7013 30.7911 21.4321C30.0792 23.9433 28.6963 26.213 26.7911 27.9971C25.1186 26.6921 23.4386 25.3971 21.7661 24.0921C22.5953 23.5328 23.303 22.8118 23.8469 21.9724C24.3907 21.133 24.7595 20.1925 24.9311 19.2071H16.3136C16.3111 17.1521 16.3136 15.0946 16.3136 13.0371Z" fill="#587DBD"/>
<path d="M2.18359 23.1001C3.91193 21.7667 5.63943 20.4267 7.36609 19.0801C8.03411 21.0406 9.30461 22.7398 10.9961 23.9351C12.0511 24.6807 13.2499 25.1984 14.5161 25.4551C15.7637 25.6871 17.0435 25.6871 18.2911 25.4551C19.5351 25.2445 20.7213 24.7762 21.7736 24.0801C23.4461 25.3851 25.1261 26.6801 26.7986 27.9851C24.9683 29.6494 22.7371 30.8098 20.3236 31.3526C17.6596 31.9788 14.8834 31.9488 12.2336 31.2651C10.1378 30.7055 8.18028 29.7191 6.48359 28.3676C4.68775 26.9418 3.22098 25.145 2.18359 23.1001Z" fill="#319F43"/>
</g>
<defs>
<clipPath id="clip0_2001_426">
<rect width="32" height="32" fill="white" transform="translate(-0.00390625)"/>
</clipPath>
</defs>
</svg>
