<svg width="324" height="313" viewBox="0 0 324 313" fill="none" xmlns="http://www.w3.org/2000/svg">
<path d="M160.629 10.9516C169.361 9.78795 173.074 11.7166 177.007 20.8721M162.152 5.60991C184.429 -8.08952 206.731 8.868 216.241 54.8307C226.747 75.3117 224.041 79.4621 215.86 87.2631C211.479 91.189 210.988 93.5597 212.432 97.9467M157.581 37.6607C151.008 48.6473 157.47 62.7685 143.107 71.2377C164.368 64.3628 162.152 31.9374 176.246 29.2665M145.773 77.7242C129.009 72.764 132.107 55.404 145.012 59.791M152.244 85.7369C162.939 96.3399 172.071 101.038 180.424 102.028M203.285 54.8307C206.54 77.2976 196.048 101.381 186.145 102.144C184.273 102.288 182.37 102.259 180.424 102.028M176.622 81.1582C183.549 84.3803 187.011 84.4838 192.62 81.1582M140.055 65.5144C141.793 66.1614 142.357 66.8201 143.107 68.1853M164.814 47.5812C170.574 44.2999 173.557 43.3325 177.765 45.2919M180.431 29.2665C186.291 18.4488 189.845 22.8949 196.429 41.4763C206.255 64.955 217.379 65.5144 209.38 81.1582M191.477 44.9103C195.195 42.4203 197.285 41.8664 201 44.5288M186.906 72.3824C195.996 64.6694 184.072 66.8352 187.668 55.5939M157.581 7.51776C111.123 8.21479 125.584 58.2648 114.154 72.3824C110.783 76.8179 110.239 87.3426 114.154 94.5127C118.07 101.683 114.315 101.239 111.48 104.815M124.431 107.104C117.616 105.308 116.524 91.3471 122.146 85.3553M128.24 98.7098C130.294 102.584 130.805 104.756 128.24 108.63C131.346 108.407 132.965 107.524 135.858 104.815M134.334 94.5127C132.903 102.29 134.986 105.059 141.191 108.63M141.191 108.63L144.238 81.1582M141.191 108.63C133.684 109.496 127.439 110.083 122.146 110.561M37.9663 123.893C37.1873 142.604 36.4046 153.342 36.2142 172.35M37.9663 123.893L35.6809 122.366M37.9663 123.893C37.1831 124.74 36.4221 125.555 35.6809 126.34M35.6809 122.366C36.7764 78.9829 35.7065 96.4336 48.2507 75.4349L63.8676 63.225C66.5878 56.0223 54.4133 58.7573 44.4417 66.659C41.3854 67.81 39.4887 61.6988 29.2056 49.489C22.4876 48.2369 19.7065 48.5027 17.7785 51.7783M35.6809 122.366V126.34M17.7785 51.7783C16.0849 50.9828 14.9073 51.7582 12.065 57.1201M17.7785 51.7783C19.7493 63.3681 20.5275 72.1191 23.872 74.2902M12.065 57.1201C7.96486 55.7524 6.33483 56.1181 5.97059 60.9357M12.065 57.1201L19.3012 76.5795M5.97059 60.9357C-0.456398 62.7806 0.857613 66.3464 4.82788 73.5271M5.97059 60.9357C8.63667 69.6657 10.7884 73.7859 14.0447 76.5795M4.82788 73.5271C8.54089 85.5166 11.1056 88.9648 15.874 93.7496L10.5414 139.918M4.82788 73.5271C8.53256 78.0658 10.2129 79.4698 12.065 79.2504C12.9679 79.0547 13.4449 78.6779 14.0447 76.5795M10.5414 139.918L6.73239 145.26M10.5414 139.918V144.393M6.73239 145.26C-2.18579 229.08 -7.50356 239.536 93.197 172.35L90.5307 159.377C118.176 272.257 101.096 254.149 90.5307 312H222.704C200.603 249.216 218.713 225.021 222.704 186.849M6.73239 145.26C8.05638 145.017 9.3203 144.731 10.5414 144.393M222.704 165.864V186.849M222.704 186.849C309.852 254.889 293.353 246.4 305.359 160.522M305.359 160.522C304.824 158.933 304.085 158 301.931 156.325M305.359 160.522C304.163 160.36 303.024 160.176 301.931 159.967M301.931 156.325L304.598 116.643H303.074C308.201 112.733 313.057 108.32 316.665 103.673M301.931 156.325V159.967M320.215 89.5525C321.804 89.5676 322.28 90.0559 322.5 91.8418C321.772 95.8422 319.644 99.8369 316.665 103.673M320.215 89.5525C320.254 86.3908 319.789 84.9263 317.167 83.4475M320.215 89.5525C315.919 95.3667 312.772 99.9196 309.929 102.054M317.167 83.4475C313.595 77.7877 312.358 76.7899 310.692 76.5795M317.167 83.4475C311.403 92.3527 307.462 98.2179 304.431 100.236M310.692 76.5795C306.65 61.7498 288.634 82.8623 284.791 86.1184C272.543 80.931 271.67 71.4372 262.698 76.5795C261.463 78.2644 268.589 84.9075 277.172 93.7496C278.381 99.8353 279.145 103.224 282.885 108.63L279.839 144.878M310.692 76.5795C307.213 88.4641 304.974 95.2549 301.168 96.8392M279.839 144.878L276.411 145.641M279.839 144.878L279.456 148.281M276.411 145.641L270.315 181.508M276.411 145.641C277.466 146.575 278.477 147.454 279.456 148.281M270.315 181.508C271.565 192.516 272.416 197.932 274.505 204.401M270.315 181.508C253.718 171.117 247.793 131.799 196.694 116.643M179.662 112.827L180.424 102.028M179.662 112.827V116.643M179.662 112.827C185.845 113.813 191.502 115.103 196.694 116.643M29.5865 190.665C30.7725 185.673 31.4025 182.897 33.7764 176.929C34.695 174.588 35.23 173.704 36.2142 172.35M36.2142 172.35L36.8236 171.206C95.8608 111.666 83.1188 114.084 122.146 110.561M122.146 110.561C124.588 134.185 196.912 140.571 196.694 116.643M204.8 83.4475C202.996 89.2189 202.56 93.1604 204.093 96.0389M214.323 102.028C208.789 100.554 205.55 98.7772 204.093 96.0389M204.093 96.0389C203.73 102.438 201.39 103.281 196.04 103.288M184.613 105.578C190.508 105.963 192.556 104.428 194.516 99.4729M301.168 77.3426C297.191 89.4628 294.462 96.9605 298.883 97.1836C299.71 97.2467 300.466 97.1317 301.168 96.8392M301.168 96.8392C299.363 98.8336 299.452 99.4623 300.407 100.236C301.593 101.293 302.895 101.258 304.431 100.236M304.431 100.236C304.179 101.952 304.631 102.506 305.739 103.288C307.131 103.596 308.491 103.134 309.929 102.054M309.929 102.054C309.956 103.2 310.286 103.678 311.072 104.433C312.861 104.852 314.157 104.571 316.665 103.673M19.3012 76.5795C19.6001 78.2411 19.0617 78.678 17.3967 78.8689C16.1445 78.1673 15.0428 77.4357 14.0447 76.5795M19.3012 76.5795C20.5937 78.078 21.2348 78.1159 22.3484 78.1058C23.3495 77.7197 23.5505 76.5136 23.872 74.2902M23.872 74.2902C29.278 77.2934 28.3215 68.5791 27.3001 54.8308M167.853 58.2648C168.253 58.0284 168.633 57.8128 168.996 57.6182M176.994 57.5017C175.884 56.8225 174.919 56.4173 173.947 56.2902M192.611 56.357C192.81 56.2217 193.003 56.0946 193.191 55.9755M200.61 55.5939C199.303 54.9509 198.238 54.5897 197.182 54.5707M193.191 55.9755C194.75 54.9858 195.96 54.5488 197.182 54.5707M193.191 55.9755C190.707 61.6988 199.087 65.1328 197.182 54.5707M168.996 57.6182C171.009 56.537 172.486 56.0992 173.947 56.2902M168.996 57.6182C169.757 66.6591 175.471 64.7513 173.947 56.2902M279.456 148.281C287.407 155.001 293.15 158.289 301.931 159.967M10.5414 144.393C19.0556 142.034 25.4878 137.125 35.6809 126.34" stroke="#F2FAF5" stroke-width="2"/>
</svg>
