<svg width="26" height="32" viewBox="0 0 26 32" fill="none" xmlns="http://www.w3.org/2000/svg">
<g clip-path="url(#clip0_2001_435)">
<path d="M21.7158 16.9681C21.7607 21.8017 25.956 23.4101 26.0025 23.4306C25.9669 23.544 25.3321 25.7227 23.7922 27.9732C22.461 29.9189 21.0793 31.8574 18.9028 31.8975C16.7644 31.9369 16.0767 30.6294 13.6317 30.6294C11.1874 30.6294 10.4233 31.8574 8.39891 31.9369C6.29809 32.0165 4.69829 29.833 3.35612 27.8945C0.613263 23.9292 -1.48279 16.6894 1.33169 11.8024C2.72983 9.37549 5.22858 7.83878 7.94055 7.79937C10.0035 7.76005 11.9507 9.18725 13.2118 9.18725C14.4721 9.18725 16.8384 7.47093 19.3259 7.72297C20.3672 7.76635 23.2905 8.14354 25.1675 10.8911C25.0162 10.9848 21.6795 12.9273 21.7158 16.9682M17.6967 5.09958C18.8121 3.74949 19.5627 1.87012 19.3579 0C17.7502 0.0646095 15.8063 1.07134 14.653 2.42062C13.6196 3.61559 12.7145 5.52808 12.9588 7.36112C14.7508 7.49978 16.5813 6.45049 17.6967 5.09958Z" fill="black"/>
</g>
<defs>
<clipPath id="clip0_2001_435">
<rect width="26.0063" height="32" fill="white" transform="translate(-0.00390625)"/>
</clipPath>
</defs>
</svg>
