<svg width="32" height="32" viewBox="0 0 32 32" fill="none" xmlns="http://www.w3.org/2000/svg">
<g clip-path="url(#clip0_2001_432)">
<path d="M31.9961 16C31.9961 7.1635 24.8326 0 15.9961 0C7.15959 0 -0.00390625 7.1635 -0.00390625 16C-0.00390625 23.986 5.84709 30.6054 13.4961 31.8056V20.625H9.43359V16H13.4961V12.475C13.4961 8.465 15.8848 6.25 19.5396 6.25C21.2901 6.25 23.1211 6.5625 23.1211 6.5625V10.5H21.1036C19.116 10.5 18.4961 11.7334 18.4961 12.9987V16H22.9336L22.2242 20.625H18.4961V31.8056C26.1451 30.6054 31.9961 23.9861 31.9961 16Z" fill="#1877F2"/>
<path d="M22.2242 20.625L22.9336 16H18.4961V12.9987C18.4961 11.7332 19.116 10.5 21.1036 10.5H23.1211V6.5625C23.1211 6.5625 21.2901 6.25 19.5395 6.25C15.8848 6.25 13.4961 8.465 13.4961 12.475V16H9.43359V20.625H13.4961V31.8056C14.3231 31.9352 15.159 32.0002 15.9961 32C16.8332 32.0002 17.6691 31.9352 18.4961 31.8056V20.625H22.2242Z" fill="white"/>
</g>
<defs>
<clipPath id="clip0_2001_432">
<rect width="32" height="32" fill="white" transform="translate(-0.00390625)"/>
</clipPath>
</defs>
</svg>
