<svg width="32" height="32" viewBox="0 0 32 32" fill="none" xmlns="http://www.w3.org/2000/svg">
<g clip-path="url(#clip0_2001_437)">
<path d="M16.002 0C11.7595 0 7.68695 1.68675 4.68945 4.68625C1.68888 7.68696 0.00281175 11.7565 0.00195312 16C0.00195313 20.2417 1.68945 24.3142 4.68945 27.3137C7.68695 30.3132 11.7595 32 16.002 32C20.2445 32 24.317 30.3132 27.3145 27.3137C30.3145 24.3142 32.002 20.2417 32.002 16C32.002 11.7583 30.3145 7.68575 27.3145 4.68625C24.317 1.68675 20.2445 0 16.002 0Z" fill="url(#paint0_linear_2001_437)"/>
<path d="M7.24506 15.8311C11.9101 13.7991 15.0201 12.4594 16.5751 11.8121C21.0201 9.96381 21.9426 9.64281 22.5451 9.63193C22.6776 9.62981 22.9726 9.66256 23.1651 9.81818C23.3251 9.94943 23.3701 10.1269 23.3926 10.2516C23.4126 10.3761 23.4401 10.6598 23.4176 10.8813C23.1776 13.4113 22.1351 19.5508 21.6051 22.3846C21.3826 23.5836 20.9401 23.9856 20.5126 24.0248C19.5826 24.1103 18.8776 23.4108 17.9776 22.8211C16.5701 21.8978 15.7751 21.3233 14.4076 20.4226C12.8276 19.3816 13.8526 18.8093 14.7526 17.8743C14.9876 17.6296 19.0826 13.9058 19.1601 13.5681C19.1701 13.5258 19.1801 13.3683 19.0851 13.2853C18.9926 13.2021 18.8551 13.2306 18.7551 13.2531C18.6126 13.2851 16.3651 14.7721 12.0051 17.7138C11.3676 18.1523 10.7901 18.3661 10.2701 18.3548C9.70006 18.3426 8.60006 18.0318 7.78256 17.7663C6.78256 17.4406 5.98506 17.2683 6.05506 16.7151C6.09006 16.4271 6.48756 16.1323 7.24506 15.8311Z" fill="white"/>
</g>
<defs>
<linearGradient id="paint0_linear_2001_437" x1="1600" y1="0" x2="1600" y2="3200" gradientUnits="userSpaceOnUse">
<stop stop-color="#2AABEE"/>
<stop offset="1" stop-color="#229ED9"/>
</linearGradient>
<clipPath id="clip0_2001_437">
<rect width="32" height="32" fill="white" transform="translate(0.00195312)"/>
</clipPath>
</defs>
</svg>
