<svg width="221" height="220" viewBox="0 0 221 220" fill="none" xmlns="http://www.w3.org/2000/svg">
<path d="M58.9375 201.666V189.905C58.9415 180.428 56.7681 171.075 52.585 162.571L49.9175 157.144C44.5472 146.209 41.7532 134.19 41.75 122.008V75.0747C41.75 67.8513 47.525 61.9847 54.6383 61.9847C61.7608 61.9847 67.5358 67.8513 67.5358 75.0747M136.286 201.666V189.942C136.304 179.465 147.24 174.13 156.187 168.914C166.417 162.946 174.612 153.312 178.398 141.726C180.882 134.099 173.997 127.471 165.766 127.471C157.534 127.471 150.549 134.658 144.591 140.167C143.805 140.904 142.955 141.569 142.052 142.156C130.428 149.572 114.909 140.653 114.909 127.471C114.909 114.29 130.428 105.371 142.052 112.777C144.948 114.299 147.341 116.316 149.247 118.415C153.583 123.181 159.294 127.471 165.839 127.471C174.208 127.471 181.23 120.716 178.746 112.942C175.583 103.185 169.403 94.6842 161.096 88.6673C152.788 82.6504 142.785 79.4281 132.528 79.4655C123.388 79.4655 119.089 82.0505 119.089 82.0505L138.752 36.1805C142.189 27.6647 136.029 18.333 126.963 18.333C122.142 18.333 117.733 21.1013 115.569 25.483L93.3125 70.7113M93.3125 70.7113L89.2058 79.053M93.3125 70.7113V40.1588C93.3125 32.9263 87.5375 27.0597 80.4242 27.0597C73.3017 27.0597 67.5358 32.9263 67.5358 40.1588V75.0838V105.636" stroke="#F2FAF5" stroke-width="2" stroke-linecap="round" stroke-linejoin="round"/>
</svg>
